<?xml version="1.0" encoding="iso-8859-1"?>
<!-- Generator: Adobe Illustrator 19.0.0, SVG Export Plug-In . SVG Version: 6.00 Build 0)  -->
<svg version="1.1" id="Layer_1" xmlns="http://www.w3.org/2000/svg" xmlns:xlink="http://www.w3.org/1999/xlink" x="0px" y="0px"
	 viewBox="0 0 512 512" style="enable-background:new 0 0 512 512;" xml:space="preserve">
<g>
	<g>
		<g>
			<path d="M255.999,317.33c16.581,0,30.07-13.49,30.07-30.071v-34.752c0-16.581-13.489-30.071-30.07-30.071
				c-16.581,0-30.07,13.49-30.07,30.071v34.752C225.93,303.84,239.418,317.33,255.999,317.33z M241.929,252.507
				c0-7.759,6.312-14.071,14.07-14.071c7.759,0,14.07,6.312,14.07,14.071v34.752c0,7.759-6.311,14.071-14.07,14.071
				s-14.07-6.312-14.07-14.071V252.507z"/>
			<path d="M210.011,464.001H47.999V301.989c0-13.234-10.766-24-24-24s-24,10.766-24,24V488c0,13.234,10.766,24,24,24h186.011
				c13.234,0,24-10.766,24-24C234.01,474.766,223.244,464.001,210.011,464.001z M210.011,496H24c-4.412,0-8-3.588-8-8V301.989
				c0-4.411,3.588-8,8-8c4.411,0,8,3.589,8,8v170.011c0,4.418,3.582,8,8,8h170.011c4.411,0,8,3.589,8,8
				C218.011,492.412,214.421,496,210.011,496z"/>
			<path d="M24,234.01c13.234,0,24-10.766,24-24V47.999h162.011c13.234,0,24-10.766,24-24s-10.766-24-24-24H24
				C10.766,0,0,10.766,0,24v186.011C0,223.244,10.766,234.01,24,234.01z M16,24c0-4.412,3.588-8,8-8h186.011c4.411,0,8,3.588,8,8
				c0,4.411-3.589,8-8,8H39.999c-4.418,0-8,3.582-8,8v170.011c0,4.411-3.589,8-8,8c-4.412,0-8-3.589-8-8V24z"/>
			<path d="M488,277.99c-13.234,0-24,10.766-24,24v162.011H301.989c-13.234,0-24,10.766-24,24c0,13.234,10.766,24,24,24H488
				c13.234,0,24-10.766,24-24V301.989C512,288.755,501.234,277.99,488,277.99z M496,488c0,4.412-3.588,8-8,8H301.989
				c-4.411,0-8-3.588-8-8c0-4.411,3.589-8,8-8h170.011c4.418,0,8-3.582,8-8V301.989c0-4.411,3.589-8,8-8c4.412,0,8,3.589,8,8V488z"
				/>
			<path d="M488,0H301.989c-13.234,0-24,10.766-24,24s10.766,24,24,24h162.011v162.011c0,13.234,10.766,24,24,24
				c13.234,0,24-10.766,24-24V24C512,10.766,501.234,0,488,0z M496,210.011c0,4.411-3.588,8-8,8c-4.411,0-8-3.589-8-8V39.999
				c0-4.418-3.582-8-8-8H301.989c-4.411,0-8-3.589-8-8c0-4.412,3.589-8,8-8H488c4.412,0,8,3.588,8,8V210.011z"/>
			<path d="M190.63,247.82c0,4.418,3.582,8,8,8s8-3.582,8-8c0-19.621-15.962-35.583-35.583-35.583
				c-19.621,0-35.583,15.962-35.583,35.583c0,4.418,3.582,8,8,8c4.418,0,8-3.582,8-8c0-10.799,8.785-19.584,19.584-19.584
				C181.844,228.237,190.63,237.022,190.63,247.82z"/>
			<path d="M442.134,256.231c0-30.263-7.374-59.998-21.353-86.58c1.795-1.53,3.281-3.444,4.33-5.669
				c2.498-5.305,2.091-11.403-1.088-16.312C386.945,90.393,324.133,56.2,256,56.2c-72.825,0-139.96,39.646-175.206,103.468
				c-2.153,3.899-2.581,8.553-1.175,12.773c1.12,3.362,3.349,6.231,6.259,8.192c-10.617,23.803-16.013,49.191-16.013,75.598
				c0,102.635,83.5,186.134,186.134,186.134S442.134,358.866,442.134,256.231z M255.999,72.198
				c62.684,0,120.475,31.464,154.592,84.165c0.067,0.103,0.244,0.377,0.044,0.802c-0.198,0.422-0.518,0.46-0.638,0.472
				c-6.163,0.719-12.448,1.084-18.68,1.084c-27.623,0-54.86-7.155-78.766-20.691c-2.896-1.639-6.503-1.315-9.06,0.813
				c-35.608,29.642-80.771,45.967-127.167,45.967c-28.392,0-55.82-5.866-81.523-17.408
				C127.23,108.679,188.999,72.198,255.999,72.198z M255.999,426.366c-93.813,0-170.134-76.322-170.134-170.134
				c0-24.178,4.944-47.415,14.673-69.193c24.169,9.134,49.599,13.773,75.786,13.773c48.306,0,95.371-16.377,133.161-46.23
				c25.117,13.191,53.291,20.141,81.832,20.141c4.575,0,9.174-0.195,13.746-0.549c13.794,25.021,21.072,53.279,21.072,82.06
				C426.135,350.044,349.813,426.366,255.999,426.366z"/>
			<path d="M340.954,212.237c-19.62,0-35.583,15.962-35.583,35.583c0,4.418,3.582,8,8,8s8-3.582,8-8
				c0-10.799,8.785-19.584,19.584-19.584s19.584,8.785,19.584,19.584c0,4.418,3.582,8,8,8c4.418,0,8-3.582,8-8
				C376.537,228.199,360.575,212.237,340.954,212.237z"/>
			<path d="M324.96,295.26c-4.418,0-8,3.582-8,8c0,33.613-27.347,60.959-60.959,60.959s-60.959-27.347-60.959-60.959
				c0-4.418-3.582-8-8-8c-4.418,0-8,3.582-8,8c0,42.436,34.524,76.959,76.959,76.959s76.959-34.524,76.959-76.959
				C332.959,298.841,329.378,295.26,324.96,295.26z"/>
		</g>
	</g>
</g>
<g>
</g>
<g>
</g>
<g>
</g>
<g>
</g>
<g>
</g>
<g>
</g>
<g>
</g>
<g>
</g>
<g>
</g>
<g>
</g>
<g>
</g>
<g>
</g>
<g>
</g>
<g>
</g>
<g>
</g>
</svg>
